<?xml version="1.0" encoding="iso-8859-1"?>
<!-- Uploaded to: SVG Repo, www.svgrepo.com, Generator: SVG Repo Mixer Tools -->
<svg height="800px" width="800px" version="1.1" id="Layer_1" xmlns="http://www.w3.org/2000/svg" xmlns:xlink="http://www.w3.org/1999/xlink" 
	 viewBox="0 0 512 512" xml:space="preserve">
<g>
	<path style="fill:#4C213A;" d="M230.127,505.207c-8.292,0-15.013-6.723-15.013-15.013V51.656c0-23.291,18.948-42.239,42.239-42.239
		s42.239,18.948,42.239,42.239v365.86c0,8.29-6.721,15.013-15.013,15.013s-15.013-6.723-15.013-15.013V51.656
		c0-6.733-5.478-12.213-12.213-12.213c-6.733,0-12.213,5.478-12.213,12.213v438.537C245.14,498.485,238.418,505.207,230.127,505.207
		z"/>
	<path style="fill:#4C213A;" d="M402.074,506.709H112.63c-8.292,0-15.013-6.723-15.013-15.013s6.721-15.013,15.013-15.013h289.444
		c8.292,0,15.013,6.723,15.013,15.013S410.366,506.709,402.074,506.709z"/>
	<path style="fill:#4C213A;" d="M416.104,117.039H284.58c-8.292,0-15.013-6.723-15.013-15.013s6.721-15.013,15.013-15.013h131.524
		c8.292,0,15.013,6.723,15.013,15.013S424.395,117.039,416.104,117.039z"/>
	<path style="fill:#4C213A;" d="M474.688,372.395H366.743c-20.574,0-37.312-16.736-37.312-37.312V209.326
		c0-20.574,16.738-37.312,37.312-37.312h107.946c20.574,0,37.312,16.736,37.312,37.312v125.757
		C512,355.659,495.262,372.395,474.688,372.395z M366.743,202.044c-4.017,0-7.286,3.268-7.286,7.286v125.757
		c0,4.017,3.268,7.286,7.286,7.286h107.946c4.017,0,7.286-3.268,7.286-7.286V209.329c0-4.017-3.268-7.286-7.286-7.286
		L366.743,202.044L366.743,202.044z"/>
</g>
<path style="fill:#E7B3A8;" d="M344.444,263.034v72.051c0,12.315,9.984,22.299,22.299,22.299H474.69
	c12.315,0,22.299-9.984,22.299-22.299v-72.051H344.444z"/>
<g>
	<path style="fill:#4C213A;" d="M474.688,372.395H366.743c-20.574,0-37.312-16.736-37.312-37.312v-72.051
		c0-8.29,6.721-15.013,15.013-15.013h152.543c8.292,0,15.013,6.723,15.013,15.013v72.051
		C512,355.659,495.262,372.395,474.688,372.395z M359.457,278.046v57.039c0,4.017,3.268,7.286,7.286,7.286h107.946
		c4.017,0,7.286-3.268,7.286-7.286v-57.039H359.457z"/>
	<path style="fill:#4C213A;" d="M420.716,139.501c-8.292,0-15.013-6.723-15.013-15.013V79.567c0-8.29,6.721-15.013,15.013-15.013
		c8.292,0,15.013,6.723,15.013,15.013v44.923C435.728,132.78,429.007,139.501,420.716,139.501z"/>
	<path style="fill:#4C213A;" d="M227.421,57.46H95.896c-8.292,0-15.013-6.723-15.013-15.013s6.721-15.013,15.013-15.013H227.42
		c8.292,0,15.013,6.723,15.013,15.013S235.713,57.46,227.421,57.46z"/>
	<path style="fill:#4C213A;" d="M145.257,313.135H37.312C16.738,313.135,0,296.395,0,275.822V150.066
		c0-20.574,16.738-37.313,37.312-37.313h107.946c20.574,0,37.312,16.738,37.312,37.313v125.756
		C182.569,296.395,165.831,313.135,145.257,313.135z M37.312,142.78c-4.017,0-7.286,3.27-7.286,7.287v125.756
		c0,4.017,3.268,7.287,7.286,7.287h107.946c4.017,0,7.286-3.27,7.286-7.287V150.066c0-4.017-3.268-7.287-7.286-7.287H37.312V142.78z
		"/>
</g>
<path style="fill:#E7B3A8;" d="M167.556,203.772v72.051c0,12.315-9.984,22.299-22.299,22.299H37.312
	c-12.315,0-22.299-9.984-22.299-22.299v-72.051H167.556z"/>
<g>
	<path style="fill:#4C213A;" d="M145.257,313.135H37.312C16.738,313.135,0,296.395,0,275.822v-72.05
		c0-8.29,6.721-15.013,15.013-15.013h152.543c8.292,0,15.013,6.723,15.013,15.013v72.05
		C182.569,296.395,165.831,313.135,145.257,313.135z M30.026,218.785v57.037c0,4.017,3.268,7.287,7.286,7.287h107.946
		c4.017,0,7.286-3.27,7.286-7.287v-57.037H30.026z"/>
	<path style="fill:#4C213A;" d="M91.284,80.239c-8.292,0-15.013-6.723-15.013-15.013V20.303c0-8.29,6.721-15.013,15.013-15.013
		c8.292,0,15.013,6.723,15.013,15.013v44.923C106.297,73.517,99.576,80.239,91.284,80.239z"/>
</g>
</svg>